<mxfile host="app.diagrams.net" agent="Mozilla/5.0 (Windows NT 10.0; Win64; x64) AppleWebKit/537.36 (KHTML, like Gecko) Chrome/128.0.0.0 Safari/537.36" version="24.7.12">
  <diagram id="C5RBs43oDa-KdzZeNtuy" name="Page-1">
    <mxGraphModel dx="1235" dy="614" grid="1" gridSize="10" guides="1" tooltips="1" connect="1" arrows="1" fold="1" page="1" pageScale="1" pageWidth="827" pageHeight="1169" math="0" shadow="0">
      <root>
        <mxCell id="WIyWlLk6GJQsqaUBKTNV-0" />
        <mxCell id="WIyWlLk6GJQsqaUBKTNV-1" parent="WIyWlLk6GJQsqaUBKTNV-0" />
        <mxCell id="_QN29jZTm3K8xXCqDRZJ-2" value="" style="edgeStyle=orthogonalEdgeStyle;rounded=0;orthogonalLoop=1;jettySize=auto;html=1;" edge="1" parent="WIyWlLk6GJQsqaUBKTNV-1" source="_QN29jZTm3K8xXCqDRZJ-0" target="_QN29jZTm3K8xXCqDRZJ-1">
          <mxGeometry relative="1" as="geometry" />
        </mxCell>
        <mxCell id="_QN29jZTm3K8xXCqDRZJ-0" value="Inicio" style="ellipse;whiteSpace=wrap;html=1;aspect=fixed;" vertex="1" parent="WIyWlLk6GJQsqaUBKTNV-1">
          <mxGeometry x="375" y="40" width="80" height="80" as="geometry" />
        </mxCell>
        <mxCell id="_QN29jZTm3K8xXCqDRZJ-4" value="" style="edgeStyle=orthogonalEdgeStyle;rounded=0;orthogonalLoop=1;jettySize=auto;html=1;" edge="1" parent="WIyWlLk6GJQsqaUBKTNV-1" source="_QN29jZTm3K8xXCqDRZJ-1" target="_QN29jZTm3K8xXCqDRZJ-3">
          <mxGeometry relative="1" as="geometry" />
        </mxCell>
        <mxCell id="_QN29jZTm3K8xXCqDRZJ-1" value="Mostrar mensaje: &quot;Porfavor, ingrese una palabra: &quot;" style="shape=parallelogram;perimeter=parallelogramPerimeter;whiteSpace=wrap;html=1;fixedSize=1;fillColor=#ffe6cc;strokeColor=#d79b00;" vertex="1" parent="WIyWlLk6GJQsqaUBKTNV-1">
          <mxGeometry x="340" y="160" width="150" height="70" as="geometry" />
        </mxCell>
        <mxCell id="_QN29jZTm3K8xXCqDRZJ-6" value="" style="edgeStyle=orthogonalEdgeStyle;rounded=0;orthogonalLoop=1;jettySize=auto;html=1;" edge="1" parent="WIyWlLk6GJQsqaUBKTNV-1" source="_QN29jZTm3K8xXCqDRZJ-3" target="_QN29jZTm3K8xXCqDRZJ-5">
          <mxGeometry relative="1" as="geometry">
            <Array as="points">
              <mxPoint x="415" y="430" />
              <mxPoint x="415" y="430" />
            </Array>
          </mxGeometry>
        </mxCell>
        <mxCell id="_QN29jZTm3K8xXCqDRZJ-3" value="Definir la variable cantidad_letras y asignarle la Longitud palabra_ingresada" style="rounded=1;whiteSpace=wrap;html=1;fillColor=#dae8fc;strokeColor=#6c8ebf;" vertex="1" parent="WIyWlLk6GJQsqaUBKTNV-1">
          <mxGeometry x="348.75" y="280" width="132.5" height="80" as="geometry" />
        </mxCell>
        <mxCell id="_QN29jZTm3K8xXCqDRZJ-9" value="" style="edgeStyle=orthogonalEdgeStyle;rounded=0;orthogonalLoop=1;jettySize=auto;html=1;" edge="1" parent="WIyWlLk6GJQsqaUBKTNV-1" source="_QN29jZTm3K8xXCqDRZJ-5" target="_QN29jZTm3K8xXCqDRZJ-8">
          <mxGeometry relative="1" as="geometry" />
        </mxCell>
        <mxCell id="_QN29jZTm3K8xXCqDRZJ-5" value="&amp;nbsp;Mostrar mensaje: &quot;La palabra ingresada tiene&quot;, cantidad_letras, &quot;Letras&quot;" style="shape=parallelogram;perimeter=parallelogramPerimeter;whiteSpace=wrap;html=1;fixedSize=1;rounded=1;fillColor=#ffe6cc;strokeColor=#d79b00;" vertex="1" parent="WIyWlLk6GJQsqaUBKTNV-1">
          <mxGeometry x="317.5" y="400" width="195" height="70" as="geometry" />
        </mxCell>
        <mxCell id="_QN29jZTm3K8xXCqDRZJ-8" value="Fin" style="ellipse;whiteSpace=wrap;html=1;rounded=1;" vertex="1" parent="WIyWlLk6GJQsqaUBKTNV-1">
          <mxGeometry x="375" y="520" width="80" height="80" as="geometry" />
        </mxCell>
      </root>
    </mxGraphModel>
  </diagram>
</mxfile>
